<?xml version="1.0" encoding="iso-8859-1"?>
<!-- Generator: Adobe Illustrator 19.0.0, SVG Export Plug-In . SVG Version: 6.00 Build 0)  -->
<svg version="1.1" id="Capa_1" xmlns="http://www.w3.org/2000/svg" xmlns:xlink="http://www.w3.org/1999/xlink" x="0px" y="0px"
	 viewBox="0 0 512 512" style="enable-background:new 0 0 512 512;" xml:space="preserve">
<g>
	<g transform="translate(1)">
		<g>
			<path style="fill:#2E7D32;" d="M187.587,491.442c-4.437,1.536-8.789,2.901-13.141,4.011c3.328-1.195,6.827-2.304,10.24-3.243
				C185.624,491.954,186.648,491.698,187.587,491.442z"/>
			<path style="fill:#2E7D32;" d="M484.803,448.434c-2.497,0.017-4.964,0.539-7.253,1.536c-0.768,0.341-1.621,0.683-2.389,1.024
				c-6.358,2.677-12.959,4.735-19.712,6.144c-32.768,6.571-52.309-9.899-63.915-31.744c-10.064-21.6-15.776-44.971-16.811-68.779
				l14.592-200.021c3.13-37.248-9.129-74.153-33.925-102.124S295.427,9.901,258.072,8.541
				c-38.015-0.854-74.626,14.366-100.831,41.919s-39.571,64.882-36.812,102.806l14.848,203.349
				c-1.034,23.807-6.747,47.178-16.811,68.779c-8.226,18.668-26.006,31.34-46.336,33.024h-0.085
				c-12.811,0.461-25.552-2.081-37.205-7.424c-0.768-0.341-1.621-0.683-2.389-1.024c-4.383-1.949-9.367-2.042-13.82-0.258
				s-7.994,5.294-9.818,9.73c-0.874,2.079-1.309,4.316-1.28,6.571c-0.036,6.895,3.971,13.172,10.24,16.043
				c23.807,10.729,49.196,17.53,75.179,20.139c16.975,1.795,34.101,1.594,51.029-0.597c0.259,0.014,0.518-0.015,0.768-0.085
				c10.028-1.321,19.952-3.346,29.696-6.059c3.328-1.195,6.827-2.304,10.24-3.243c0.939-0.256,1.963-0.512,2.901-0.768
				c2.816-1.024,5.632-2.048,8.533-3.157c4.634-1.819,9.362-3.386,14.165-4.693c13.463-3.821,27.392-5.745,41.387-5.717h6.656
				c14.023-0.034,27.982,1.89,41.472,5.717c4.775,1.308,9.475,2.874,14.08,4.693c16.535,6.531,33.821,10.975,51.456,13.227
				c0.25,0.07,0.509,0.099,0.768,0.085c16.928,2.192,34.055,2.392,51.029,0.597c13.615-1.397,27.089-3.937,40.277-7.595
				c0.085,0,0.256-0.085,0.341-0.085c11.791-3.272,23.316-7.437,34.475-12.459c7.522-3.47,11.612-11.711,9.826-19.8
				C500.266,454.167,493.087,448.414,484.803,448.434z"/>
		</g>
		<path style="fill:#4CAF50;" d="M502.467,466.013c0.036,6.895-3.971,13.172-10.24,16.043c-11.159,5.022-22.683,9.187-34.475,12.459
			c-0.085,0-0.256,0.085-0.341,0.085c-13.189,3.657-26.662,6.198-40.277,7.595c-16.975,1.795-34.101,1.594-51.029-0.597
			c-0.259,0.014-0.518-0.015-0.768-0.085c-17.635-2.252-34.921-6.695-51.456-13.227c-4.605-1.819-9.305-3.386-14.08-4.693
			c-13.491-3.827-27.449-5.751-41.472-5.717h-6.656c-13.994-0.028-27.924,1.896-41.387,5.717c-4.803,1.307-9.532,2.874-14.165,4.693
			c-2.901,1.109-5.717,2.133-8.533,3.157c-0.939,0.256-1.963,0.512-2.901,0.768c-3.413,0.939-6.912,2.048-10.24,3.243
			c-9.744,2.713-19.668,4.738-29.696,6.059c-0.25,0.07-0.509,0.099-0.768,0.085c-16.928,2.192-34.055,2.392-51.029,0.597
			c-25.983-2.608-51.371-9.409-75.179-20.139c-6.269-2.871-10.276-9.147-10.24-16.043c-0.029-2.255,0.406-4.492,1.28-6.571
			c1.824-4.436,5.365-7.946,9.818-9.73s9.437-1.691,13.82,0.258c0.768,0.341,1.621,0.683,2.389,1.024
			c11.653,5.343,24.394,7.885,37.205,7.424h0.085c20.33-1.685,38.11-14.356,46.336-33.024c10.064-21.6,15.776-44.971,16.811-68.779
			l-14.848-203.349c-4.066-56.44,27.472-109.435,79.019-132.779c42.287-9.621,86.622,1.665,119.162,30.335
			s49.321,71.228,45.105,114.391l-14.592,200.021c1.034,23.807,6.747,47.178,16.811,68.779c13.824,25.941,38.741,44.288,83.627,25.6
			c0.768-0.341,1.621-0.683,2.389-1.024c1.168-0.475,2.365-0.874,3.584-1.195l-0.085-0.256c6.753-1.409,13.354-3.467,19.712-6.144
			c0.768-0.341,1.621-0.683,2.389-1.024c2.289-0.997,4.757-1.52,7.253-1.536C494.535,448.411,502.443,456.281,502.467,466.013z"/>
		<circle style="fill:#ECF0F1;" cx="255" cy="153.608" r="93.867"/>
		<path style="fill:#F0785A;" d="M281.001,435.208c-8.06-0.027-15.943-2.361-22.718-6.727c-2.087-0.939-4.476-0.939-6.562,0
			c-6.772,4.366-14.654,6.7-22.711,6.727c-17.424-0.291-33.068-10.745-40.004-26.732c-2.649-5.687-4.515-11.707-5.545-17.896
			l-12.872-75.201c-2.949-16.57,1.083-33.622,11.141-47.116c9.418-12.915,24.383-20.623,40.367-20.789h65.815
			c15.984,0.166,30.949,7.874,40.367,20.789c10.072,13.524,14.1,30.614,11.127,47.212l-12.88,75.225
			c-1.031,6.15-2.89,12.132-5.527,17.783C314.06,424.465,298.421,434.914,281.001,435.208z"/>
		<path style="fill:#F44335;" d="M278.401,426.674c-7.262-0.027-14.362-2.15-20.446-6.115c-1.876-0.854-4.03-0.854-5.906,0
			c-6.082,3.965-13.18,6.089-20.44,6.115c-15.74-0.303-29.836-9.817-36.004-24.301c-2.386-5.174-4.064-10.647-4.991-16.269
			l-11.585-68.364c-2.658-15.048,0.966-30.528,10.027-42.833c8.421-11.713,21.906-18.728,36.33-18.899h59.234
			c14.425,0.171,27.91,7.186,36.33,18.899c9.074,12.332,12.693,27.846,10.014,42.92l-11.592,68.386
			c-0.927,5.587-2.6,11.025-4.974,16.167C308.229,416.859,294.137,426.37,278.401,426.674z"/>
		<path style="fill:#37474F;" d="M305.831,310.058l-11.928,73.65c-0.472,2.999-1.329,5.925-2.55,8.704
			c-1.341,3.742-4.324,6.662-8.095,7.923c-3.77,1.26-7.91,0.721-11.232-1.463c-10.347-6.753-23.707-6.753-34.053,0
			c-3.322,2.184-7.462,2.723-11.232,1.463c-3.77-1.26-6.754-4.18-8.095-7.923c-1.221-2.779-2.078-5.705-2.55-8.704l-11.928-73.65
			c-1.53-6.529-0.167-13.4,3.739-18.851c3.906-5.451,9.975-8.95,16.649-9.599h60.886c6.674,0.65,12.743,4.149,16.649,9.599
			C305.998,296.658,307.361,303.529,305.831,310.058z"/>
		<path style="fill:#ECF0F1;" d="M232.516,281.608l15.377,60.118c0.231,3.757,3.346,6.685,7.11,6.685
			c3.764,0,6.879-2.928,7.11-6.685l15.378-60.118H232.516z"/>
		<g>
			<path style="fill:#CDDC39;" d="M143.981,501.597c-16.928,2.192-34.055,2.392-51.029,0.597
				c0.657-13.504,11.715-24.161,25.233-24.319S143.009,488.112,143.981,501.597z"/>
			<path style="fill:#CDDC39;" d="M210.285,483.592c-4.803,1.307-9.532,2.874-14.165,4.693
				c-16.519,6.491-33.771,10.933-51.371,13.227c-0.451-2.161-0.68-4.363-0.683-6.571c-0.03-16.619,11.935-30.836,28.316-33.643
				C188.763,458.49,204.779,467.911,210.285,483.592z"/>
			<path style="fill:#CDDC39;" d="M417.133,502.194c-16.975,1.795-34.101,1.594-51.029-0.597
				c0.973-13.485,12.277-23.88,25.796-23.722C405.419,478.033,416.477,488.691,417.133,502.194z"/>
			<path style="fill:#CDDC39;" d="M366.019,494.941c-0.003,2.208-0.231,4.41-0.683,6.571c-17.635-2.252-34.921-6.695-51.456-13.227
				c-4.605-1.819-9.305-3.386-14.08-4.693c5.506-15.681,21.522-25.101,37.903-22.294
				C354.084,464.105,366.049,478.322,366.019,494.941z"/>
		</g>
		<circle style="fill:#37474F;" cx="255" cy="153.608" r="42.667"/>
	</g>
	<g>
		<path d="M500.254,444.249c-7.488-4.89-16.94-5.666-25.125-2.063c-22.533,9.854-41.092,10.467-55.167,1.842
			c-29.067-17.825-34.625-70.675-35.658-87.396l14.508-199.412c2.922-40.545-10.842-80.526-38.104-110.679
			c-25.937-28.873-62.679-45.708-101.483-46.5c-40.4-0.908-79.309,15.268-107.158,44.549s-42.056,68.952-39.125,109.255
			l14.754,202.787c-1.033,16.721-6.592,69.571-35.658,87.396c-14.071,8.629-32.625,8.013-55.167-1.842
			c-8.185-3.608-17.638-2.832-25.125,2.063C4.392,449.053-0.029,457.253,0,466.037c-0.006,10.205,5.917,19.483,15.175,23.775
			c24.791,11.118,51.213,18.166,78.247,20.87c0.054,0.004,0.098,0.035,0.153,0.038l0.26,0.006
			c7.467,0.735,15.142,1.269,23.219,1.269c28.485,0.039,56.722-5.301,83.225-15.742c16.687-6.544,34.459-9.884,52.383-9.846h6.675
			c17.925-0.039,35.696,3.302,52.383,9.846c60.071,22.742,126.756,20.422,185.1-6.442c9.271-4.298,15.196-13.594,15.179-23.813
			C512.02,457.228,507.599,449.043,500.254,444.249z M105.003,494.531c3.049-4.985,8.446-8.052,14.288-8.122
			s11.311,2.869,14.477,7.78C124.198,494.943,114.588,495.057,105.003,494.531z M153.933,491.646
			c1.25-10.112,8.416-18.5,18.208-21.315c9.792-2.815,20.319,0.488,26.748,8.392c-1.61,0.573-3.257,1.021-4.852,1.647
			C181.079,485.456,167.644,489.233,153.933,491.646z M313.178,478.746c6.424-7.917,16.957-11.231,26.757-8.418
			c9.8,2.813,16.971,11.209,18.217,21.329c-13.739-2.412-27.203-6.193-40.189-11.286
			C316.391,479.752,314.766,479.312,313.178,478.746z M378.317,494.188c3.165-4.909,8.631-7.847,14.472-7.78
			c5.841,0.068,11.237,3.132,14.287,8.113C397.493,495.049,387.885,494.938,378.317,494.188z M489.709,474.295
			c-20.592,9.287-42.422,15.541-64.808,18.565c-3.383-10.647-11.817-18.928-22.524-22.116c-10.707-3.188-22.297-0.869-30.953,6.193
			c-6.656-14.44-20.829-23.945-36.715-24.623c-15.886-0.678-30.817,7.584-38.68,21.404c-12.022-2.864-24.333-4.332-36.691-4.376
			h-6.675c-12.332,0.043-24.619,1.506-36.617,4.358c-7.869-13.813-22.799-22.068-38.682-21.385
			c-15.882,0.682-30.05,10.187-36.705,24.624c-8.658-7.064-20.252-9.383-30.96-6.192c-10.709,3.191-19.142,11.478-22.52,22.13
			c-22.415-3.024-44.273-9.283-64.892-18.581c-3.211-1.509-5.249-4.749-5.221-8.296c-0.031-3.015,1.487-5.836,4.021-7.471
			c2.663-1.76,6.046-2.025,8.95-0.7c27.946,12.208,51.813,12.459,70.921,0.746c35.446-21.738,42.442-78.221,43.808-101.495
			c0.02-0.373,0.017-0.748-0.009-1.121l-14.792-203.35c-2.584-35.51,9.932-70.462,34.47-96.259s58.82-40.046,94.414-39.242
			c34.125,0.703,66.432,15.518,89.233,40.917c24.123,26.69,36.298,62.076,33.704,97.958l-14.546,199.975
			c-0.026,0.373-0.029,0.747-0.009,1.121c1.367,23.275,8.363,79.758,43.808,101.495c19.108,11.721,42.971,11.471,70.921-0.746
			c2.905-1.324,6.286-1.06,8.95,0.7c2.543,1.644,4.062,4.481,4.021,7.509C494.951,469.573,492.911,472.797,489.709,474.295z"/>
		<path d="M358.4,153.608c0.068-49.694-35.552-92.263-84.479-100.96s-97.035,18.99-114.096,65.663s1.85,98.859,44.851,123.766
			c-11.471,3.98-21.486,11.307-28.751,21.035c-11.484,15.373-16.099,34.81-12.75,53.704l12.867,75.179
			c1.162,6.946,3.257,13.703,6.229,20.087c8.319,19.002,26.983,31.383,47.725,31.659h0.012c9.161-0.023,18.144-2.531,25.992-7.258
			c7.85,4.728,16.836,7.237,26,7.258c20.741-0.272,39.407-12.647,47.733-31.646c2.96-6.34,5.047-13.053,6.204-19.954l12.875-75.204
			c3.374-18.93-1.233-38.412-12.729-53.825c-7.266-9.73-17.283-17.058-28.756-21.037C338.898,223.793,358.355,190.09,358.4,153.608z
			 M288.913,256.008c13.308,0.178,25.75,6.63,33.562,17.404c8.648,11.644,12.093,26.347,9.517,40.621l-12.883,75.258
			c-0.9,5.389-2.529,10.63-4.842,15.579c-5.552,12.964-18.167,21.488-32.266,21.804c-6.412-0.026-12.682-1.882-18.075-5.35
			c-4.937-2.619-10.848-2.631-15.796-0.033c-5.402,3.488-11.69,5.356-18.121,5.384H230c-14.1-0.318-26.714-8.846-32.263-21.812
			c-2.327-4.996-3.964-10.284-4.867-15.721l-12.875-75.225c-2.553-14.239,0.899-28.9,9.538-40.504
			c7.813-10.775,20.255-17.227,33.562-17.404H288.913z M256,238.941c-47.128,0-85.333-38.205-85.333-85.333
			S208.872,68.274,256,68.274s85.333,38.205,85.333,85.333C341.281,200.714,303.107,238.889,256,238.941z"/>
		<path d="M196.746,311.42l11.925,73.638c0.588,3.721,1.654,7.351,3.171,10.8c2.63,6.23,7.892,10.968,14.362,12.933
			c5.981,1.707,12.411,0.664,17.546-2.846c7.506-4.65,16.998-4.65,24.504,0c3.492,2.371,7.613,3.644,11.833,3.654
			c1.931,0.001,3.853-0.271,5.709-0.808c6.469-1.965,11.731-6.702,14.362-12.929c1.515-3.447,2.58-7.074,3.171-10.792l11.925-73.65
			c1.685-10.029-1.057-20.296-7.517-28.15c-5.222-6.405-13.032-10.144-21.296-10.196h-60.883
			c-8.264,0.052-16.074,3.791-21.296,10.196C197.799,291.123,195.058,301.391,196.746,311.42z M267.501,290.141l-11.497,44.946
			l-11.497-44.946H267.501z M217.275,294.316c2.019-2.534,5.045-4.06,8.283-4.175h1.334l13.733,53.7
			c1.48,7.398,7.84,12.817,15.379,13.104h0.004c7.537-0.288,13.894-5.707,15.371-13.104l13.737-53.7h1.325
			c3.238,0.116,6.264,1.641,8.283,4.175c3.247,4.026,4.591,9.262,3.683,14.354l-0.004,0.025l-11.925,73.662
			c-0.36,2.276-1.008,4.496-1.929,6.608c-0.607,1.595-1.879,2.847-3.483,3.429c-1.123,0.311-2.327,0.09-3.267-0.6
			c-13.232-8.694-30.364-8.694-43.596,0c-0.941,0.69-2.146,0.911-3.271,0.6c-1.606-0.582-2.878-1.836-3.483-3.433
			c-0.924-2.114-1.572-4.338-1.929-6.617l-11.929-73.675C212.685,303.578,214.028,298.342,217.275,294.316z"/>
		<path d="M256,102.408c-28.277,0-51.2,22.923-51.2,51.2s22.923,51.2,51.2,51.2s51.2-22.923,51.2-51.2
			C307.169,125.344,284.264,102.439,256,102.408z M256,187.741c-18.851,0-34.133-15.282-34.133-34.133s15.282-34.133,34.133-34.133
			c18.851,0,34.133,15.282,34.133,34.133C290.112,172.45,274.843,187.719,256,187.741z"/>
	</g>
</g>
<g>
</g>
<g>
</g>
<g>
</g>
<g>
</g>
<g>
</g>
<g>
</g>
<g>
</g>
<g>
</g>
<g>
</g>
<g>
</g>
<g>
</g>
<g>
</g>
<g>
</g>
<g>
</g>
<g>
</g>
</svg>
