<svg height="512" viewBox="0 0 39 60" width="512" xmlns="http://www.w3.org/2000/svg"><g id="008---Drinks-Container" fill="none"><path id="Shape" d="m34.39 21.75-3.6 34.25c0 1.66-5.28 3-11.79 3s-11.79-1.34-11.79-3l-3.6-34.25c.17 0 3.92 1.46 13.89 1.61 4.19.17 12.57-.27 16.89-1.61z" fill="#f44335"/><path id="Shape" d="m31.32 22.46-3.53 33.54c0 1.53-4.49 2.79-10.29 3h1.5c6.51 0 11.79-1.34 11.79-3l3.6-34.25c-1.0080378.2985167-2.0332534.5356187-3.07.71z" fill="#c81e1e"/><path id="Shape" d="m37 15.62v4.38c0 3.42-24.07 4.63-33.38 1.75-1.62-.51-2.62-1.11-2.62-1.75v-4.38c0 .78 1.4 1.34 2.13 1.59 0 .21 5.3 1.63 14.37 1.78 4.63.09 13-.26 17.37-1.77.73-.22 2.13-.82 2.13-1.6z" fill="#3f51b5"/><path id="Shape" d="m19.92 30.56 1.68 3.33c.1482.3008534.4373441.5073849.77.55l3.75.54c.3812936.0484546.7010723.3111582.8226176.6757941.1215453.364636.0233445.766666-.2526176 1.0342059l-2.69 2.59c-.2417604.2283319-.3542011.5619058-.3.89l.64 3.65c.0757843.3846201-.0801543.7780489-.3988588 1.0063103-.3187046.2282614-.7413895.249252-1.0811412.0536897l-3.37-1.73c-.2938054-.1564448-.6461946-.1564448-.94 0l-3.37 1.73c-.3397517.1955623-.7624366.1745717-1.0811412-.0536897-.3187045-.2282614-.4746431-.6216902-.3988588-1.0063103l.64-3.65c.0542011-.3280942-.0582396-.6616681-.3-.89l-2.71-2.59c-.2630589-.2660741-.3555756-.6567416-.2397853-1.0125337.1157903-.355792.4205145-.61718.7897853-.6774663l3.75-.54c.3326559-.0426151.6218-.2491466.77-.55l1.68-3.33c.1530389-.3705067.5125439-.6138163.9133894-.6181733.4008456-.004357.7655543.2310806.9266106.5981733z" fill="#f5f5f5"/><path id="Shape" d="m37 15.62c0 .78-1.4 1.34-2.13 1.59 0 .26-6 1.79-15.87 1.79-4.48 0-11.82-.38-15.87-1.78-6.13-2.11 1.43-4.68 13.76-4.94 1.38 0 .93-.08 5.42 0 8.36.23 14.69 1.72 14.69 3.34z" fill="#02a9f4"/><path id="Shape" d="m22.31 12.31c-4.78-.06-7.76-.06-3 0 8.36.29 14.69 1.69 14.69 3.31 0 .78-1.4 1.34-2.13 1.59 0 .24-5.44 1.63-14.38 1.78h1.51c9.83 0 15.87-1.53 15.87-1.79.73-.2 2.13-.8 2.13-1.58 0-1.62-6.33-3.02-14.69-3.31z" fill="#0377bc"/><path id="Shape" d="m37.84 8.79c-.2090069.4884337-.6037607.8736386-1.0971649 1.07062507-.4934042.19698643-1.0449097.18956573-1.5328351-.02062507l-11.28-4.84c-.43 2-2 9.05-2.44 11h-4.09c1.54-7.34 1.6-7 2.65-12 .2812435-1.10755145 1.0227456-2.04193965 2.0374448-2.56744298 1.0146991-.52550333 2.205704-.59194263 3.2725552-.18255702l11.43 4.91c.4884337.20900691.8736386.6037607 1.0706251 1.0971649.1969864.49340419.1895657 1.04490968-.0206251 1.5328351z" fill="#fec108"/><g id="Layer_2" fill="#000"><path id="Shape" d="m2.68 22.47 3.53 33.59c.11 3.11 8.07 3.94 12.79 3.94s12.68-.83 12.79-3.94l3.53-33.59c1.62-.6 2.68-1.41 2.68-2.47v-4.38c0-3.14-9.32-4-14.46-4.26l1.1-5 10.18 4.36c.986053.4215734 2.1221104.2850703 2.9802302-.35809.8581198-.64316026 1.3079332-1.69526633 1.18-2.76000002-.1279333-1.06473369-.8141771-1.9803366-1.8002302-2.40190998l-11.45-4.86c-1.3101762-.50634803-2.7729119-.43825297-4.0303792.18762712s-2.1936829 1.75181678-2.5796208 3.10237288c0 .12-.34 1.51-1.7 7.64-4.27.07-17.42.61-17.42 4.35v4.38c0 1.06 1.06 1.87 2.68 2.47zm33.32-4.66v2.1c-.5770784.4253663-1.2332154.731337-1.93.9-6.91 2.23-23.2 2.1-30.15 0-.69409181-.1676014-1.34716033-.4737273-1.92-.9v-2.1c6.21 2.88 27.69 2.93 34 0zm-6.2 38.13c-.34.74-4.24 2.06-10.8 2.06s-10.46-1.32-10.79-2c0-.1.21 1.94-3.45-32.91 7.15 1.7 21.32 1.7 28.48 0zm-8.8-51.77c.2269959-.80615453.7806411-1.48072184 1.5270492-1.86057331.7464081-.37985148 1.6176192-.43040185 2.4029508-.13942669l11.47 4.91c.5081019.22091391.7409139.81189803.52 1.31999998-.2209139.50810196-.811898.74091389-1.32.52000002l-11.28-4.84c-.2732491-.11723145-.5844951-.10678663-.8492701.0284999-.2647751.13528652-.4556155.3813822-.5207299.6715001l-2.26 10.22h-2zm-4 9.11-.4 1.72h-1.6c-.5522847 0-1 .4477153-1 1s.4477153 1 1 1h8c.5522847 0 1-.4477153 1-1s-.4477153-1-1-1h-.26l.36-1.65c8.19.35 12 1.61 12.81 2.27-.4538417.3027157-.9489268.5384705-1.47.7-6.76 2.24-24.1 2.25-30.88 0-.52107321-.1615295-1.01615829-.3972843-1.47-.7.91-.8 5.91-2.16 14.91-2.34z"/><path id="Shape" d="m17.19 30.11-1.7 3.34-3.75.55c-.7635037.1003384-1.4015841.6301147-1.6406148 1.3621462-.23903071.7320314-.0365492 1.5362769.5206148 2.0678538l2.71 2.57-.64 3.65c-.1045665.5878883.059014 1.1917492.4460156 1.6464761.3870016.4547268.9569403.712751 1.5539844.7035239.65 0 .65-.08 4.34-2l3.37 1.73c.6771082.3669662 1.5047694.3125391 2.127991-.1399369.6232216-.4524759.9312658-1.2226021.792009-1.9800631l-.65-3.61 2.71-2.58c.5509424-.5323505.7493692-1.3326471.5109371-2.0607163-.238432-.7280692-.8718202-1.2559585-1.6309371-1.3592837l-3.77-.55-1.68-3.33c-.3277656-.7023201-1.0317905-1.1520462-1.8068254-1.1541872-.775035-.002141-1.4815339.4436886-1.8131746 1.1441872zm1.81.89 1.69 3.34c.2975896.5886106.8662469.9926565 1.52 1.08l3.79.58-2.71 2.58c-.4830999.4607942-.7044203 1.1322578-.59 1.79l.6 3.63-3.37-1.73c-.5822835-.3058382-1.2777165-.3058382-1.86 0l-3.41 1.73.64-3.66c.1144203-.6577422-.1069001-1.3292058-.59-1.79l-2.71-2.55 3.75-.54c.6537531-.0873435 1.2224104-.4913894 1.52-1.08z"/></g></g></svg>